<?xml version="1.0" encoding="utf-8"?>
<!-- Generator: Adobe Illustrator 24.0.0, SVG Export Plug-In . SVG Version: 6.00 Build 0)  -->
<svg version="1.1" id="Laag_1" xmlns="http://www.w3.org/2000/svg" xmlns:xlink="http://www.w3.org/1999/xlink" x="0px" y="0px"
	 viewBox="0 0 841.89 595.28" style="enable-background:new 0 0 841.89 595.28;" xml:space="preserve">
<style type="text/css">
	.st0{fill:#253B8F;}
	.st1{fill:#7BCDF1;}
	.st2{fill:#36A9E1;}
	.st3{fill:#84AB1C;}
	.st4{fill:none;}
	.st5{fill:#B8CAEA;}
	.st6{fill:#C4C4C4;}
	.st7{fill:#FFFFFF;}
	.st8{fill:#DEDEDE;}
</style>
<g>
	<path class="st0" d="M357.86,303.2c0.1-0.13,0.23-0.2,0.4-0.2c0.17,0,0.31,0.05,0.45,0.15c2.61,2.12,5.61,3.81,9,5.08
		c3.39,1.27,6.97,1.91,10.74,1.91c4.23,0,7.57-0.88,10.02-2.63c2.31-1.69,3.47-3.92,3.47-6.7c0-5.23-2.93-8.23-8.78-9.03h0.05
		c-0.83-0.1-1.61-0.2-2.36-0.3c-0.74-0.1-1.49-0.2-2.23-0.3s-1.5-0.21-2.28-0.32c-0.78-0.12-1.63-0.24-2.55-0.37
		c-3.11-0.43-5.88-1.21-8.31-2.36c-2.43-1.14-4.47-2.65-6.13-4.54c-1.65-1.92-2.89-4.01-3.72-6.28c-0.83-2.26-1.24-4.74-1.24-7.42
		c0-6.28,2.08-11.39,6.25-15.33c4.2-4,10.04-6,17.51-6c2.21,0,4.37,0.19,6.47,0.57c2.1,0.38,4.13,0.9,6.1,1.56
		c1.97,0.66,3.85,1.45,5.65,2.36c1.8,0.91,3.53,1.91,5.18,3c0.33,0.23,0.38,0.51,0.15,0.84l-6,8.88c-0.23,0.3-0.5,0.35-0.79,0.15
		c-2.58-1.62-5.33-2.92-8.23-3.89c-2.91-0.97-5.92-1.46-9.03-1.46c-1.59,0-3.06,0.19-4.42,0.57c-1.36,0.38-2.58,1-3.67,1.86
		c-2.15,1.55-3.22,3.92-3.22,7.09c0,1.82,0.73,3.59,2.18,5.31c0.73,0.79,1.7,1.46,2.93,2.01c1.22,0.55,2.73,0.95,4.51,1.21
		c0.96,0.17,2.08,0.34,3.37,0.52c1.29,0.18,2.81,0.37,4.56,0.57c6.78,0.83,11.8,3.32,15.08,7.49c3.27,4.07,4.91,8.6,4.91,13.59
		c0,6.68-2.33,11.9-6.99,15.67c-4.7,3.7-10.88,5.56-18.55,5.56c-10.81,0-20.01-3.31-27.58-9.92c-0.13-0.1-0.2-0.23-0.2-0.4
		c0-0.17,0.05-0.31,0.15-0.45L357.86,303.2z"/>
	<path class="st0" d="M427.75,321.46c-0.4,0-0.6-0.2-0.6-0.6v-60.91h-18.9c-0.4,0-0.59-0.2-0.59-0.59v-9.57c0-0.4,0.2-0.6,0.59-0.6
		h49.7c0.4,0,0.59,0.2,0.59,0.6v9.57c0,0.4-0.2,0.59-0.59,0.59h-18.85v60.91c0,0.4-0.2,0.6-0.6,0.6H427.75z"/>
	<path class="st0" d="M459,321.41c-0.23,0-0.4-0.08-0.5-0.25c-0.1-0.17-0.12-0.35-0.05-0.55l25.99-71.13c0.07-0.26,0.23-0.4,0.5-0.4
		h8.88c0.1,0,0.21,0.04,0.32,0.12c0.12,0.08,0.19,0.17,0.22,0.27l25.94,71.13c0.07,0.2,0.05,0.38-0.05,0.55
		c-0.1,0.17-0.25,0.25-0.45,0.25h-11.36c-0.26,0-0.43-0.13-0.5-0.4l-5.36-15.67h-26.19c-0.93,2.68-1.84,5.3-2.75,7.86
		c-0.91,2.56-1.83,5.17-2.75,7.81c-0.03,0.1-0.11,0.19-0.22,0.27c-0.12,0.08-0.22,0.12-0.32,0.12H459z M499.03,294.67
		c-0.07-0.23-0.16-0.48-0.27-0.74c-0.12-0.26-0.21-0.5-0.27-0.69c-0.56-1.62-1.08-3.12-1.54-4.49s-0.88-2.57-1.24-3.6
		c-0.23-0.66-0.46-1.31-0.67-1.93c-0.22-0.63-0.42-1.22-0.62-1.79c-0.17-0.53-0.33-1.03-0.5-1.51c-0.17-0.48-0.33-0.95-0.5-1.41
		c-0.3-0.96-0.6-1.92-0.92-2.88c-0.31-0.96-0.64-1.95-0.97-2.98c-0.17-0.46-0.34-0.97-0.52-1.54c-0.18-0.56-0.37-1.16-0.57-1.79
		c-0.1-0.33-0.17-0.59-0.22-0.77c-0.05-0.18-0.11-0.36-0.17-0.55c-0.07-0.18-0.14-0.39-0.22-0.62c-0.08-0.23-0.19-0.56-0.32-0.99
		c-0.36,1.09-0.7,2.1-1.02,3.03c-0.31,0.93-0.6,1.79-0.87,2.58c-0.07,0.2-0.12,0.38-0.15,0.55c-0.03,0.17-0.08,0.33-0.15,0.5
		c-0.17,0.56-0.34,1.09-0.52,1.59s-0.36,0.99-0.52,1.49c-0.17,0.53-0.33,1.04-0.5,1.54c-0.17,0.5-0.33,0.98-0.5,1.44
		c-0.33,0.99-0.67,2.03-1.02,3.13c-0.35,1.09-0.74,2.23-1.17,3.42c-0.43,1.19-0.88,2.47-1.34,3.84c-0.46,1.37-1.06,3.1-1.79,5.18
		H499.03z"/>
	<path class="st0" d="M577.7,300.43c0.2,0,0.36,0.07,0.5,0.22c0.13,0.15,0.17,0.32,0.1,0.52c-1.39,6.75-4.46,11.94-9.23,15.58
		c-2.31,1.75-4.83,3.08-7.54,3.97c-2.71,0.89-5.64,1.34-8.78,1.34c-5.72,0-10.53-1.37-14.43-4.12c-3.84-2.71-6.61-5.69-8.33-8.93
		c-0.59-1.12-1.11-2.26-1.54-3.4c-0.43-1.14-0.76-2.34-0.99-3.6c-0.43-2.45-0.64-8-0.64-16.67c0-4.33,0.05-7.87,0.15-10.62
		c0.1-2.74,0.26-4.75,0.5-6s0.56-2.46,0.99-3.62c0.43-1.16,0.94-2.3,1.54-3.42c1.72-3.21,4.5-6.18,8.33-8.93
		c3.87-2.78,8.68-4.17,14.43-4.17c6.88,0,12.57,2.12,17.06,6.35c4.56,4.27,7.39,9.33,8.48,15.18c0.07,0.2,0.03,0.36-0.1,0.5
		c-0.13,0.13-0.3,0.2-0.5,0.2h-11.36c-0.3,0-0.48-0.13-0.55-0.4c-0.43-1.32-1.04-2.55-1.83-3.7c-0.79-1.14-1.77-2.21-2.93-3.2
		c-2.18-1.95-4.94-2.93-8.28-2.93c-2.48,0-4.6,0.5-6.35,1.49c-1.75,0.99-3.16,2.13-4.22,3.42c-0.63,0.79-1.17,1.7-1.64,2.7
		s-0.83,2.04-1.09,3.1c-0.27,1.13-0.45,2.86-0.55,5.21c-0.1,2.35-0.15,5.29-0.15,8.83c0,3.6,0.05,6.57,0.15,8.9
		c0.1,2.33,0.28,4.06,0.55,5.18c0.26,1.03,0.64,2.04,1.12,3.05c0.48,1.01,1.02,1.89,1.61,2.65c1.06,1.39,2.46,2.57,4.22,3.55
		c1.75,0.98,3.87,1.46,6.35,1.46c5.72,0,10.07-3.13,13.05-9.38c0.07-0.07,0.15-0.14,0.25-0.22c0.1-0.08,0.2-0.12,0.3-0.12H577.7z"/>
	<path class="st0" d="M586.23,321.46c-0.36,0-0.54-0.2-0.54-0.6v-71.08c0-0.4,0.18-0.6,0.54-0.6h10.81c0.4,0,0.6,0.2,0.6,0.6v35.32
		c4.73-5.99,9.46-11.93,14.19-17.83c4.73-5.9,9.47-11.85,14.24-17.83c0.17-0.17,0.31-0.25,0.45-0.25h12.8
		c0.26,0,0.45,0.12,0.55,0.35c0.1,0.23,0.07,0.45-0.1,0.64l-22.52,27.73c4.2,7.18,8.36,14.29,12.47,21.33
		c4.12,7.04,8.29,14.15,12.53,21.33c0.1,0.23,0.11,0.44,0.02,0.62c-0.08,0.18-0.26,0.27-0.52,0.27h-12.8c-0.2,0-0.36-0.1-0.5-0.3
		l-19.05-34.03c-2.05,2.12-4.02,4.17-5.9,6.15c-1.88,1.98-3.84,4.04-5.85,6.15v21.43c0,0.4-0.2,0.6-0.6,0.6H586.23z"/>
	<path class="st0" d="M650.21,321.46c-0.4,0-0.59-0.2-0.59-0.6v-71.08c0-0.4,0.2-0.6,0.59-0.6h10.76c0.4,0,0.6,0.2,0.6,0.6v60.37
		h34.08c0.4,0,0.59,0.2,0.59,0.6v10.12c0,0.4-0.2,0.6-0.59,0.6H650.21z"/>
</g>
<polygon class="st1" points="327.64,337.81 234.09,383.78 234.09,265.98 327.64,220.01 "/>
<polygon class="st2" points="140.54,337.81 234.09,383.78 234.09,265.98 140.54,220.01 "/>
<polygon class="st3" points="327.64,220.01 234.09,265.86 140.54,220.01 231.49,173.35 "/>
<polygon class="st4" points="289.18,363.88 333.29,342.21 333.29,217.26 230.91,166.8 134.88,217.24 134.88,342.21 178.99,363.88 
	234.09,354.1 "/>
<polygon class="st5" points="174.36,364.71 134.72,371.75 234.09,395.88 333.45,371.75 293.81,364.71 234.09,394.05 "/>
<path class="st0" d="M231.51,164l-0.63-0.31l-98.77,51.87v128.38l42.26,20.76l59.73,29.35l59.73-29.35l42.26-20.76V215.53
	L231.51,164z M333.29,342.21l-44.11,21.67l-55.1,27.07l-55.1-27.07l-44.11-21.67V217.24l96.03-50.44l102.38,50.46V342.21z"/>
<path class="st6" d="M234.09,265.97l-5.39-2.62l-31.96,24.26c-2.61-2.42-5.88-3.87-9.43-3.87c-8.52,0-15.44,8.27-15.44,18.47
	c0,10.2,6.91,18.47,15.44,18.47s15.44-8.27,15.44-18.47c0-2.67-0.49-5.21-1.34-7.5l32.68-24.81L234.09,265.97z"/>
<polygon class="st4" points="234.09,266.11 234.25,265.9 234.09,265.97 "/>
<path class="st7" d="M283.66,283.43c-4.33,0-8.23,2.14-11.04,5.57l-33.55-25.47l-4.83,2.37l-0.16,0.21v4.26l34.76,26.39
	c-0.4,1.63-0.62,3.35-0.62,5.14c0,10.2,6.91,18.47,15.44,18.47s15.44-8.27,15.44-18.47C299.1,291.69,292.19,283.43,283.66,283.43z"
	/>
<path class="st8" d="M252.8,218.45c0-4.98-8.38-9.02-18.71-9.02c-10.33,0-18.71,4.04-18.71,9.02c0,4.2,5.96,7.72,14.03,8.72
	l-0.7,36.18l5.39,2.75l4.99-2.58l-0.67-35.99C246.93,226.69,252.8,222.8,252.8,218.45z"/>
</svg>
